<svg width="21" height="21" viewBox="0 0 21 21" fill="none" xmlns="http://www.w3.org/2000/svg">
<mask id="mask0_45_1435" style="mask-type:luminance" maskUnits="userSpaceOnUse" x="0" y="0" width="21" height="21">
<path d="M0 10.4729C0 16.2636 4.69874 20.9623 10.4894 20.9623C16.2801 20.9623 20.9789 16.2636 20.9789 10.4729C20.9789 4.68219 16.2801 0 10.4894 0C4.69874 0 0 4.68219 0 10.4729Z" fill="white"/>
</mask>
<g mask="url(#mask0_45_1435)">
<path d="M7.82569 -0.463226H-5.526V6.68415H7.82569V-0.463226Z" fill="#00237C"/>
<path d="M-1.85305 -0.463226H-5.526V1.78687L12.359 13.5999L16.7103 11.7965L-1.85305 -0.463226Z" fill="white"/>
<path d="M-5.526 -0.28125V1.27397L12.5906 13.2359L13.302 12.1605L-5.526 -0.28125Z" fill="#CF142B"/>
<path d="M26.6372 -0.463226H13.2855V6.68415H26.6372V-0.463226Z" fill="#00237C"/>
<path d="M22.9808 -0.463226H26.6538V1.78687L8.76877 13.5999L4.41748 11.7965L22.9808 -0.463226Z" fill="white"/>
<path d="M26.6538 -0.28125V1.27397L8.52063 13.2359L7.8092 12.1605L26.6538 -0.28125Z" fill="#CF142B"/>
<path d="M26.6372 13.9308H13.2855V21.0782H26.6372V13.9308Z" fill="#00237C"/>
<path d="M22.9808 21.0781H26.6538V18.828L8.76877 7.01501L4.41748 8.8184L22.9808 21.0781Z" fill="white"/>
<path d="M26.6538 20.8962V19.341L8.52063 7.37906L7.8092 8.45447L26.6538 20.8962Z" fill="#CF142B"/>
<path d="M7.82569 13.9308H-5.526V21.0782H7.82569V13.9308Z" fill="#00237C"/>
<path d="M-1.85305 21.0781H-5.526V18.828L12.359 7.01501L16.7103 8.8184L-1.85305 21.0781Z" fill="white"/>
<path d="M-5.526 20.8962V19.341L12.5906 7.37906L13.302 8.45447L-5.526 20.8962Z" fill="#CF142B"/>
<path d="M26.6537 6.68415H13.3186V-0.463226H7.74296V6.68415H-5.526V13.7653H7.74296V21.0782H13.3186V13.7653H26.6537V6.68415Z" fill="white"/>
<path d="M26.6537 8.12355H12.1439V-0.463226H8.93419V8.12355H-5.526V12.3259H8.93419V21.0782H12.1439V12.3259H26.6537V8.12355Z" fill="#CF142B"/>
</g>
</svg>
