<svg width="21" height="21" viewBox="0 0 21 21" fill="none" xmlns="http://www.w3.org/2000/svg">
<g clip-path="url(#clip0_35_275)">
<path d="M0.30386 7.70992C1.64751 2.27135 7.13407 -1.03979 12.5727 0.30386C18.0112 1.64751 21.3224 7.15007 19.9787 12.5727C18.6351 18.0112 13.1325 21.3224 7.70992 19.9787C2.27135 18.6351 -1.03979 13.1325 0.30386 7.70992Z" fill="white"/>
<path d="M12.0128 0.175866C10.7811 -0.0640717 9.56541 -0.0640717 8.39772 0.143874V8.23776H0.175866C-0.0640717 9.45344 -0.0640717 10.6851 0.143874 11.8528H8.39772V20.1226C9.62939 20.3306 10.8451 20.3146 12.0128 20.0907V11.8528H20.1226C20.3306 10.6211 20.3146 9.40545 20.0907 8.23776H12.0128V0.175866Z" fill="#C62931"/>
<path d="M5.79042 3.07129H4.47876V7.02226H5.79042V3.07129Z" fill="#C62931"/>
<path d="M7.10209 4.39893H3.15112V5.71058H7.10209V4.39893Z" fill="#C62931"/>
<path d="M15.8358 3.07129H14.5242V7.02226H15.8358V3.07129Z" fill="#C62931"/>
<path d="M17.1634 4.39893H13.2124V5.71058H17.1634V4.39893Z" fill="#C62931"/>
<path d="M5.79042 13.0845H4.47876V17.0354H5.79042V13.0845Z" fill="#C62931"/>
<path d="M7.10209 14.3962H3.15112V15.7079H7.10209V14.3962Z" fill="#C62931"/>
<path d="M15.8358 13.0845H14.5242V17.0354H15.8358V13.0845Z" fill="#C62931"/>
<path d="M17.1634 14.3962H13.2124V15.7079H17.1634V14.3962Z" fill="#C62931"/>
</g>
<defs>
<clipPath id="clip0_35_275">
<rect width="20.2827" height="20.2827" fill="white"/>
</clipPath>
</defs>
</svg>

