<svg width="109" height="51" viewBox="0 0 109 51" fill="none" xmlns="http://www.w3.org/2000/svg">
<path d="M23.0867 13.366H0V19.4414H12.7584L0 34.0225V40.0979H23.0867V34.0225H10.3283L23.0867 19.4414V13.366Z" fill="white"/>
<path d="M49.8187 40.0979V13.366H57.4785L63.7922 24.3018L70.4752 13.366H77.7658V40.0979H70.4752V26.7319L63.7922 34.63L57.1093 26.7319V40.0979H49.8187Z" fill="white"/>
<path d="M96.6 13.366L108.143 40.0984H99.6371L97.8148 35.238H88.7015L86.2719 40.0984H78.9808L89.9164 13.366H96.6ZM89.9164 30.3777H95.9916L92.9545 21.8718L89.9164 30.3777Z" fill="white"/>
<path d="M49.0172 26.669C49.0172 28.7181 48.7686 30.5853 48.2715 32.2706C47.7865 33.9438 47.0227 35.3866 45.98 36.5991C44.9373 37.8115 43.5975 38.7451 41.9607 39.3998C40.3239 40.0424 38.3657 40.3637 36.0863 40.3637C33.8554 40.3637 31.9215 40.0424 30.2847 39.3998C28.66 38.7451 27.3203 37.8176 26.2654 36.6172C25.2106 35.4048 24.4286 33.9559 23.9193 32.2706C23.4101 30.5853 23.1555 28.706 23.1555 26.6327C23.1555 23.8683 23.6101 21.4676 24.5195 19.4307C25.441 17.3816 26.8595 15.7994 28.7752 14.6839C30.6909 13.5563 33.1401 12.9925 36.1227 12.9925C39.1538 12.9925 41.6151 13.5563 43.5066 14.6839C45.4101 15.8115 46.8045 17.3998 47.6895 19.4488C48.5746 21.4979 49.0172 23.9046 49.0172 26.669ZM30.7212 26.669C30.7212 28.2695 30.9031 29.6456 31.2668 30.7974C31.6305 31.9493 32.2065 32.8344 32.9946 33.4527C33.7827 34.0711 34.8132 34.3803 36.0863 34.3803C37.4079 34.3803 38.4567 34.0711 39.2327 33.4527C40.0208 32.8344 40.5845 31.9493 40.924 30.7974C41.2756 29.6456 41.4515 28.2695 41.4515 26.669C41.4515 24.2684 41.0513 22.3709 40.2511 20.9765C39.4509 19.5822 38.0748 18.8851 36.1227 18.8851C34.8254 18.8851 33.7766 19.2003 32.9764 19.8308C32.1883 20.4613 31.6124 21.3585 31.2486 22.5224C30.897 23.6864 30.7212 25.0686 30.7212 26.669Z" fill="white"/>
<rect x="44.4587" y="44.9919" width="63.6842" height="6.00794" fill="white"/>
<rect x="27.6365" y="44.9919" width="15.6206" height="6.00794" fill="white"/>
<rect x="15.6207" y="44.9919" width="10.8143" height="6.00794" fill="white"/>
<rect x="7.20947" y="44.9919" width="7.20953" height="6.00794" fill="white"/>
<rect x="2.4032" y="44.9919" width="3.60476" height="6.00794" fill="white"/>
<rect y="44.9919" width="1.20159" height="6.00794" fill="white"/>
</svg>
